<svg width="35" height="34" viewBox="0 0 35 34" fill="none" xmlns="http://www.w3.org/2000/svg">
<path d="M14.75 11.375C14.75 10.4446 15.5071 9.6875 16.4375 9.6875H19.8125C20.7429 9.6875 21.5 10.4446 21.5 11.375V11.9375H22.625V11.375C22.625 9.82419 21.3633 8.5625 19.8125 8.5625H16.4375C14.8867 8.5625 13.625 9.82419 13.625 11.375V11.9375H14.75V11.375Z" fill="white"/>
<path d="M11.9375 16.4375H16.4375V18.6875H11.9375V16.4375Z" fill="white"/>
<path d="M7.4375 14.1875V6.3125H1.8125V14.1875H7.4375ZM3.5 8H5.75V12.5H3.5V8Z" fill="white"/>
<path d="M0.6875 0.6875H8.5625V1.8125H0.6875V0.6875Z" fill="white"/>
<path d="M8.3449 2.9375H0.905273L1.65565 5.1875H7.59452L8.3449 2.9375Z" fill="white"/>
<path d="M11.9375 19.8125H16.4375V22.0625H11.9375V19.8125Z" fill="white"/>
<path d="M16.4375 14.1875C16.4375 13.5671 15.9329 13.0625 15.3125 13.0625H13.0625C12.4421 13.0625 11.9375 13.5671 11.9375 14.1875V15.3125H16.4375V14.1875Z" fill="white"/>
<path d="M24.3125 14.1875C24.3125 13.5671 23.8079 13.0625 23.1875 13.0625H20.9375C20.3171 13.0625 19.8125 13.5671 19.8125 14.1875V15.3125H24.3125V14.1875Z" fill="white"/>
<path d="M32.1538 28.8125L31.0946 10.8125H28.7805L27.8794 26.1299L29.9376 28.0014V28.8125H32.1538Z" fill="white"/>
<path d="M19.8125 16.4375H24.3125V18.6875H19.8125V16.4375Z" fill="white"/>
<path d="M19.8125 22.0625H23.4052L24.3125 22.8877V19.8125H19.8125V22.0625Z" fill="white"/>
<path d="M2.9375 28.8125H16.4375V33.3125H2.9375V28.8125Z" fill="white"/>
<path d="M29.9375 29.9375H33.3125V33.3125H29.9375V29.9375Z" fill="white"/>
<path d="M8.5625 15.3125H0.6875V33.3125H1.8125V27.9862L8.5625 22.3618V15.3125ZM2.9375 24.3125H1.8125V23.1875H2.9375V24.3125ZM2.9375 22.0625H1.8125V20.9375H2.9375V22.0625ZM2.9375 19.8125H1.8125V18.6875H2.9375V19.8125ZM2.9375 17.5625H1.8125V16.4375H2.9375V17.5625ZM5.1875 24.3125H4.0625V23.1875H5.1875V24.3125ZM5.1875 22.0625H4.0625V20.9375H5.1875V22.0625ZM5.1875 19.8125H4.0625V18.6875H5.1875V19.8125ZM5.1875 17.5625H4.0625V16.4375H5.1875V17.5625ZM7.4375 22.0625H6.3125V20.9375H7.4375V22.0625ZM7.4375 19.8125H6.3125V18.6875H7.4375V19.8125ZM7.4375 17.5625H6.3125V16.4375H7.4375V17.5625Z" fill="white"/>
<path d="M20.9375 28.8125H25.4375V33.3125H20.9375V28.8125Z" fill="white"/>
<path d="M9.32871 23.1875L3.92871 27.6875H16.7824L21.7324 23.1875H9.32871Z" fill="white"/>
<path d="M17.5625 28.4986V33.3125H19.8125V27.6875H26.5625V33.3125H28.8125V28.4986L23.1875 23.3855L17.5625 28.4986Z" fill="white"/>
<path d="M32.1875 2.9375H30.5C30.5 1.69662 29.4909 0.6875 28.25 0.6875H27.6875V1.8125H28.25C28.8704 1.8125 29.375 2.31706 29.375 2.9375V4.0625H32.1875C32.8079 4.0625 33.3125 4.56706 33.3125 5.1875C33.3125 5.80794 32.8079 6.3125 32.1875 6.3125C31.2571 6.3125 30.5 7.06962 30.5 8V8.5625H31.625V8C31.625 7.69006 31.8776 7.4375 32.1875 7.4375C33.4284 7.4375 34.4375 6.42838 34.4375 5.1875C34.4375 3.94662 33.4284 2.9375 32.1875 2.9375Z" fill="white"/>
<path d="M22.0625 7.4375H27.6875C27.9974 7.4375 28.25 7.69006 28.25 8V8.5625H29.375V8C29.375 7.06962 28.6179 6.3125 27.6875 6.3125H22.0625C21.7526 6.3125 21.5 6.05994 21.5 5.75C21.5 5.44006 21.7526 5.1875 22.0625 5.1875H23.75H24.3125H26V4.0625H24.3125H23.75C23.1296 4.0625 22.625 3.55794 22.625 2.9375C22.625 2.31706 23.1296 1.8125 23.75 1.8125H24.3125V0.6875H23.75C22.5091 0.6875 21.5 1.69662 21.5 2.9375C21.5 3.35881 21.6238 3.74862 21.8263 4.08612C21.0078 4.20256 20.375 4.90063 20.375 5.75C20.375 6.68038 21.1321 7.4375 22.0625 7.4375Z" fill="white"/>
<path d="M25.4375 0.6875H26.5625V1.8125H25.4375V0.6875Z" fill="white"/>
</svg>
