<svg width="22" height="28" viewBox="0 0 22 28" fill="none" xmlns="http://www.w3.org/2000/svg">
<path d="M21.8203 17.3438C21.8203 16.1836 20.8711 15.2344 19.7109 15.2344C20.8711 15.2344 21.8203 14.2852 21.8203 13.125C21.8203 11.9648 20.8711 11.0156 19.7109 11.0156H11.0626C12.3492 7.1554 12.3281 5.925 12.3281 3.5625C12.3281 1.80743 10.8891 0.398438 9.16406 0.398438H8.53125C8.13047 0.398438 7.62422 0.714914 7.51868 1.2C6.47517 5.26273 4.84371 9.92466 0.726562 10.869V26.1311L4.37571 27.3421C5.45149 27.7006 6.56953 27.8906 7.70859 27.8906H17.6016C18.7666 27.8906 19.7109 26.9461 19.7109 25.7812C19.7109 24.6162 18.7666 23.6719 17.6016 23.6719H19.7109C20.8711 23.6719 21.8203 22.7227 21.8203 21.5625C21.8203 20.4023 20.8711 19.4531 19.7109 19.4531C20.8711 19.4531 21.8203 18.5039 21.8203 17.3438Z" fill="white"/>
</svg>
